<?xml version="1.0" encoding="utf-8"?>
<!-- Generator: Adobe Illustrator 26.1.0, SVG Export Plug-In . SVG Version: 6.00 Build 0)  -->
<svg version="1.1" id="Layer_1" xmlns="http://www.w3.org/2000/svg" xmlns:xlink="http://www.w3.org/1999/xlink" x="0px" y="0px"
	 viewBox="0 0 512 512" style="enable-background:new 0 0 512 512;" xml:space="preserve">
<style type="text/css">
	.st0{fill:url(#SVGID_1_);}
	.st1{fill:#FFFFFF;}
</style>
<linearGradient id="SVGID_1_" gradientUnits="userSpaceOnUse" x1="75.0524" y1="437.2725" x2="437.0911" y2="75.2338">
	<stop  offset="0" style="stop-color:#FAC767"/>
	<stop  offset="1" style="stop-color:#C7BEDA"/>
</linearGradient>
<circle class="st0" cx="256.1" cy="256.3" r="256"/>
<g>
	<path id="Shape_00000130614801035285769200000009946310636872567712_" class="st1" d="M361.5,71.3c-44.1,0-79.9,35.7-80.1,79.8
		v88.5c-8.2,0.6-16.7,0.9-25.4,0.9c-8.7,0-17.1,0.4-25.4,0.8V151c-0.7-44.2-37.1-79.5-81.3-78.8C106.1,73,71.3,107.8,70.6,151v211.4
		c0.7,44.2,37.1,79.5,81.3,78.8c43.2-0.7,78.1-35.6,78.8-78.8V274c8.2-0.6,16.7-0.9,25.4-0.9c8.7,0,17.1-0.4,25.4-0.8v90.2
		c0.7,44.2,37.1,79.5,81.3,78.8c43.2-0.7,78.1-35.6,78.8-78.8V151C441.5,106.9,405.7,71.2,361.5,71.3z M150.6,104
		c26,0,47.2,21.1,47.2,47.1v93.7c-23.4,3.4-46.3,9.9-68,19.2c-9.4,4.1-18.3,9.4-26.4,15.7V151C103.5,125,124.6,104,150.6,104z
		 M197.8,362.5c0,26.1-21.1,47.2-47.2,47.3c-26.1,0-47.2-21.1-47.3-47.2c0,0,0,0,0,0v-21.2c0-18.7,14.8-36.5,39.7-47.5
		c17.5-7.6,35.9-12.9,54.8-16L197.8,362.5L197.8,362.5z M361.5,409.6c-26,0-47.2-21.1-47.2-47.1v-93.7c23.4-3.4,46.3-9.9,68-19.2
		c9.4-4.1,18.3-9.4,26.4-15.7v128.7C408.6,388.5,387.5,409.5,361.5,409.6L361.5,409.6z M369.1,219.7c-17.5,7.6-35.9,12.9-54.8,16
		V151c0-26.1,21.1-47.2,47.2-47.3c26.1,0,47.2,21.1,47.3,47.2c0,0,0,0,0,0v21.2C408.8,190.9,393.9,208.7,369.1,219.7z"/>
</g>
</svg>
