<?xml version="1.0" encoding="utf-8"?>
<!-- Generator: Adobe Illustrator 26.1.0, SVG Export Plug-In . SVG Version: 6.00 Build 0)  -->
<svg version="1.1" id="Capa_1" xmlns="http://www.w3.org/2000/svg" xmlns:xlink="http://www.w3.org/1999/xlink" x="0px" y="0px"
	 viewBox="0 0 467 470" style="enable-background:new 0 0 467 470;" xml:space="preserve">
<style type="text/css">
	.st0{fill:url(#SVGID_1_);}
	.st1{fill:none;stroke:#FFFFFF;stroke-width:10;}
	.st2{fill:#FFFFFF;}
	.st3{display:none;}
</style>
<image style="display:none;overflow:visible;enable-background:new    ;" width="391" height="422" xlink:href="DD82B313.png"  transform="matrix(1 0 0 1 46 25.8898)">
</image>
<linearGradient id="SVGID_1_" gradientUnits="userSpaceOnUse" x1="118.9209" y1="38.7484" x2="348.1191" y2="435.7315" gradientTransform="matrix(1 0 0 -1 0 474)">
	<stop  offset="7.820000e-02" style="stop-color:#33B2FF"/>
	<stop  offset="0.6183" style="stop-color:#9616FF"/>
</linearGradient>
<circle class="st0" cx="233.5" cy="236.8" r="229.2"/>
<g>
	<path class="st1" d="M290.8,300.9c0,0,0,0,26.1,45.7c99.4,29.4,30.2,52.7,30.2,52.7c-1.3,0-95.3,3.2-107.5-25.6c0,0,0,0-23.6-43.3
		c179.3-186-30.8-198.9-115.4-252.7"/>
	<path class="st2" d="M218.2,175.4C145.8,145.9,106.6,120,98.6,96.1c-2.6-7.7-0.8-16.8,3.2-23.7l5.1,3.3c-3.2,5.4-2.8,11.8-0.8,17.8
		c7.4,21.9,44.6,45,114.4,73.4L218.2,175.4z"/>
	<path class="st1" d="M132.7,129.4c0,0-2.3,45.7,40.7,65.8c69.7,30.2,69.7,30.2,69.7,30.2"/>
	<path class="st1" d="M174.1,195.5c0,0-6.8,26,21.4,50.4c42.6,19.7,42.6,19.7,42.6,19.7"/>
	<path class="st1" d="M237.5,260c-0.9,2.3-3.5,7.6-5.6,11.4c-6.6,12.4-21.4,39.8-46.4,42.6c-16.6,1.8-39.3-7.1-47-27.8
		c-5.7-15.4-1.7-33.3,10.4-46.3"/>
</g>
<g id="Capa_2" class="st3">
</g>
<g id="guias">
</g>
<g id="guias_tamaño">
</g>
</svg>
